<?xml version="1.0" standalone="no"?>
<!DOCTYPE svg PUBLIC "-//W3C//DTD SVG 20010904//EN"
 "http://www.w3.org/TR/2001/REC-SVG-20010904/DTD/svg10.dtd">
<svg version="1.0" xmlns="http://www.w3.org/2000/svg"
 width="1280.000000pt" height="1280.000000pt" viewBox="0 0 1280.000000 1280.000000"
 preserveAspectRatio="xMidYMid meet">
<metadata>
Created by potrace 1.14, written by Peter Selinger 2001-2017
</metadata>
<g transform="translate(0.000000,1280.000000) scale(0.100000,-0.100000)"
fill="#000000" stroke="none">
<path d="M0 6400 l0 -6400 6400 0 6400 0 0 6400 0 6400 -6400 0 -6400 0 0
-6400z m6681 5810 c112 -6 239 -15 281 -20 51 -6 96 -6 130 1 48 9 78 5 305
-41 138 -28 268 -57 287 -65 30 -13 244 -72 324 -90 92 -21 513 -169 636 -224
22 -11 91 -40 151 -67 61 -26 184 -85 274 -132 171 -88 191 -99 279 -151 45
-26 163 -81 175 -81 2 0 10 26 16 58 16 71 50 173 64 190 8 11 12 11 22 0 16
-18 57 -206 63 -293 5 -76 19 -97 107 -161 22 -16 42 -31 45 -34 3 -3 30 -23
60 -45 30 -22 60 -43 65 -47 6 -4 24 -19 40 -33 17 -14 59 -48 95 -76 136
-108 269 -230 469 -430 128 -128 330 -355 356 -398 6 -10 18 -26 28 -36 10
-10 26 -30 35 -44 19 -30 28 -41 62 -79 14 -15 34 -40 45 -56 11 -16 36 -49
56 -75 19 -25 47 -66 62 -91 14 -25 34 -54 44 -65 25 -27 68 -98 65 -107 -1
-5 1 -8 6 -8 4 0 16 -16 26 -35 11 -19 23 -35 28 -35 5 0 6 -4 3 -10 -3 -5 -2
-10 4 -10 5 0 15 -16 21 -35 7 -21 16 -32 22 -29 7 5 8 2 3 -6 -4 -7 -3 -15 2
-19 17 -12 72 -107 141 -243 38 -76 72 -134 76 -131 4 4 4 0 0 -10 -3 -9 -2
-17 4 -17 6 0 13 -13 17 -30 4 -16 11 -32 16 -35 5 -4 9 -15 9 -26 0 -10 5
-19 10 -19 6 0 10 -6 10 -14 0 -7 14 -38 30 -69 17 -31 30 -65 30 -74 0 -10 7
-27 15 -37 8 -11 15 -30 15 -44 0 -15 4 -21 12 -16 7 5 8 3 3 -6 -4 -7 -4 -15
1 -19 11 -8 36 -70 37 -93 1 -10 5 -18 10 -18 5 0 6 -7 3 -16 -4 -9 -2 -13 5
-8 8 4 9 -1 4 -16 -5 -15 -3 -20 3 -16 11 7 28 -31 18 -41 -3 -3 2 -12 10 -20
8 -9 13 -22 10 -29 -3 -7 -1 -16 5 -20 6 -3 8 -12 5 -20 -3 -8 -2 -14 3 -14 5
0 12 -15 16 -32 9 -37 12 -47 15 -50 1 -2 3 -11 6 -21 2 -9 6 -23 8 -30 2 -6
7 -27 11 -44 4 -18 12 -33 17 -33 6 0 8 -7 5 -15 -4 -8 -2 -17 3 -20 5 -3 7
-12 3 -20 -3 -8 -1 -15 4 -15 5 0 9 -8 9 -17 1 -10 15 -72 32 -138 76 -292
131 -612 164 -950 21 -206 17 -869 -5 -1075 -133 -1218 -567 -2251 -1337
-3175 -151 -181 -485 -519 -670 -677 -857 -731 -1893 -1196 -2990 -1342 -311
-41 -458 -50 -795 -50 -402 1 -653 22 -1015 86 -96 17 -187 32 -202 32 -14 1
-24 4 -22 8 3 5 -91 26 -151 34 -5 0 -17 4 -25 7 -34 14 -177 50 -197 49 -13
0 -20 4 -17 9 3 5 -7 10 -23 11 -52 3 -58 4 -80 16 -12 7 -31 12 -42 12 -12 0
-21 5 -21 11 0 6 -7 9 -15 5 -8 -3 -15 -2 -15 3 0 5 -11 9 -24 9 -25 0 -115
30 -131 44 -5 4 -17 8 -27 8 -10 0 -18 5 -18 11 0 5 -5 7 -10 4 -6 -4 -17 -1
-25 5 -8 7 -15 9 -15 5 0 -4 -12 0 -26 10 -15 9 -24 12 -20 7 4 -6 -27 5 -68
24 -41 18 -79 34 -85 34 -6 0 -11 5 -11 10 0 6 -11 10 -24 10 -13 0 -29 7 -36
15 -7 8 -21 15 -32 15 -10 0 -36 9 -56 20 -20 11 -64 32 -97 46 -33 15 -67 32
-75 39 -8 7 -32 18 -52 26 -21 7 -38 17 -38 21 0 4 -3 7 -7 6 -13 -4 -73 24
-73 34 0 5 -4 6 -10 3 -5 -3 -10 -1 -10 5 0 6 -5 8 -10 5 -6 -3 -10 -1 -10 4
0 6 -3 10 -7 9 -8 -2 -14 1 -181 100 -151 89 -242 148 -327 212 -22 16 -51 34
-65 40 -13 6 -31 18 -40 26 -8 8 -55 45 -105 81 -49 37 -92 69 -95 73 -3 3
-47 39 -98 79 -51 41 -105 85 -120 100 -15 14 -59 53 -97 86 -81 70 -300 288
-400 398 -38 43 -84 92 -100 110 -17 18 -48 55 -70 82 -22 28 -44 55 -50 60
-27 24 -90 118 -87 128 2 7 0 9 -3 5 -13 -13 -138 159 -327 452 -117 180 -271
469 -385 720 -175 385 -332 892 -408 1315 -74 410 -100 736 -92 1163 6 334 14
446 42 657 92 671 263 1235 551 1820 303 617 645 1092 1133 1574 468 463 936
800 1501 1082 712 355 1422 547 2235 604 233 16 404 17 656 5z m3717 -1180
c48 -71 52 -157 12 -247 -14 -31 -25 -44 -37 -41 -22 4 -52 89 -53 149 0 45
17 156 27 172 8 14 27 2 51 -33z"/>
<path d="M7111 12088 c-6 -29 -63 -323 -126 -653 -245 -1271 -286 -1478 -291
-1487 -16 -25 -59 -26 -231 -3 -98 14 -184 25 -190 25 -10 0 -13 -29 -13 -110
0 -67 4 -110 10 -110 6 0 295 -52 643 -116 728 -133 765 -140 773 -131 3 3 16
56 28 118 l22 111 -20 9 c-12 5 -104 23 -206 39 -189 32 -220 43 -220 82 0 11
45 277 101 591 55 315 111 633 124 707 13 74 52 296 86 492 35 197 60 361 56
364 -8 8 -493 124 -518 124 -13 0 -20 -14 -28 -52z"/>
<path d="M6025 12010 c-127 -8 -343 -31 -455 -50 -30 -5 -98 -17 -151 -25
-128 -21 -319 -61 -431 -92 -31 -9 -70 -16 -86 -17 -17 -1 -28 -4 -26 -8 3 -4
-15 -12 -38 -18 -83 -21 -149 -41 -176 -52 -15 -6 -35 -10 -45 -9 -10 1 -24
-2 -31 -8 -7 -6 -48 -24 -92 -40 -43 -16 -102 -38 -129 -48 -28 -11 -56 -18
-64 -15 -9 3 -11 0 -6 -8 5 -9 4 -11 -4 -6 -6 4 -18 0 -26 -8 -9 -8 -23 -12
-32 -9 -11 4 -14 3 -9 -5 5 -8 0 -12 -12 -12 -30 0 -83 -21 -76 -31 3 -5 -3
-9 -13 -9 -10 0 -36 -9 -58 -20 -22 -11 -45 -20 -52 -20 -7 0 -13 -5 -13 -11
0 -5 -4 -8 -9 -5 -5 4 -11 3 -13 -1 -1 -5 -18 -16 -36 -25 -18 -10 -31 -14
-28 -9 6 10 -86 -36 -94 -47 -5 -7 -59 -35 -71 -36 -4 -1 -28 -15 -55 -32 -27
-17 -59 -35 -71 -38 -11 -4 -24 -13 -27 -21 -3 -8 -11 -15 -18 -15 -24 0 -98
-42 -91 -52 3 -7 1 -8 -5 -4 -12 7 -59 -19 -79 -44 -7 -8 -13 -11 -13 -6 0 6
-7 1 -16 -10 -8 -10 -12 -13 -8 -5 5 9 -2 7 -18 -5 -14 -10 -24 -22 -21 -26 2
-4 -3 -5 -11 -2 -9 3 -16 2 -16 -4 0 -5 -13 -15 -30 -22 -16 -7 -28 -15 -26
-19 2 -3 -13 -15 -35 -25 -21 -11 -39 -23 -39 -28 0 -4 -6 -8 -14 -8 -8 0 -16
-7 -20 -15 -3 -8 -10 -15 -16 -15 -17 0 -100 -67 -92 -74 3 -4 0 -5 -8 -2 -9
4 -33 -11 -58 -34 -24 -22 -45 -40 -47 -40 -2 0 -16 -10 -30 -22 -66 -60 -123
-112 -154 -141 -24 -22 -28 -24 -15 -7 38 49 -135 -109 -309 -281 -98 -97
-176 -183 -175 -190 2 -7 -2 -13 -8 -14 -14 0 -115 -107 -109 -113 2 -3 -7
-13 -20 -24 -14 -11 -22 -25 -18 -31 3 -7 2 -9 -2 -5 -11 10 -66 -52 -58 -65
3 -6 1 -7 -5 -3 -9 6 -37 -29 -35 -44 1 -3 -3 -12 -8 -20 -4 -8 -9 -10 -9 -4
0 5 5 15 12 22 7 7 9 12 5 12 -4 0 -18 -18 -32 -39 -13 -22 -35 -50 -47 -62
-13 -12 -16 -18 -8 -14 8 5 -2 -8 -23 -29 -34 -35 -42 -48 -38 -69 1 -5 -2 -6
-6 -4 -5 3 -17 -7 -27 -21 -11 -14 -14 -22 -8 -18 8 5 10 2 6 -8 -3 -9 -9 -14
-14 -11 -4 2 -35 -37 -69 -86 -35 -50 -57 -88 -49 -83 12 7 -1 -11 -44 -60
-10 -11 -18 -26 -18 -33 0 -7 -5 -13 -12 -13 -6 0 -9 -3 -5 -6 3 -4 -13 -34
-37 -68 -23 -33 -48 -76 -56 -93 -7 -18 -16 -33 -21 -33 -5 0 -8 -3 -8 -7 3
-13 -22 -73 -30 -73 -4 0 -13 -16 -21 -35 -8 -19 -17 -35 -21 -35 -4 0 -10 -7
-13 -16 -4 -10 -2 -13 7 -8 6 4 2 -4 -9 -17 -12 -13 -19 -31 -16 -39 2 -8 1
-12 -3 -8 -11 10 -44 -54 -37 -71 3 -9 1 -12 -5 -8 -6 4 -14 0 -17 -9 -4 -10
-2 -13 6 -8 6 4 -1 -9 -15 -28 -18 -23 -25 -41 -20 -53 4 -12 3 -16 -4 -12 -6
4 -13 -7 -17 -25 -3 -17 -14 -40 -22 -50 -9 -9 -18 -28 -19 -40 -4 -38 -5 -39
-15 -33 -5 3 -7 0 -4 -8 3 -8 1 -18 -5 -21 -6 -4 -7 -14 -4 -23 4 -11 2 -14
-5 -9 -7 4 -14 -4 -18 -21 -4 -15 -9 -32 -13 -38 -3 -5 -6 -14 -6 -20 -2 -27
-18 -64 -25 -60 -5 3 -6 -5 -2 -17 4 -16 2 -19 -8 -13 -8 5 -11 4 -7 -2 6 -10
-19 -91 -34 -109 -5 -7 -9 -16 -8 -20 3 -14 -25 -104 -32 -104 -4 0 -10 -7
-13 -16 -3 -8 -2 -13 3 -10 5 4 7 -3 4 -14 -3 -11 -9 -18 -13 -15 -5 3 -6 -4
-3 -15 3 -11 1 -20 -4 -20 -5 0 -10 -12 -11 -26 -1 -14 -9 -50 -18 -80 -8 -29
-15 -56 -15 -59 0 -2 -5 -19 -10 -37 -6 -18 -12 -46 -14 -62 -7 -44 -16 -67
-25 -61 -4 3 -6 -3 -3 -14 3 -10 -7 -72 -21 -137 -14 -66 -28 -141 -31 -169
-4 -27 -9 -57 -12 -65 -3 -8 -8 -26 -9 -40 -2 -14 -8 -56 -14 -95 -41 -284
-44 -340 -44 -745 -1 -416 5 -515 46 -795 11 -77 21 -151 22 -165 0 -14 4 -27
8 -30 8 -6 19 -92 19 -137 -1 -18 4 -33 9 -33 6 0 10 -10 10 -22 0 -13 11 -66
25 -118 14 -52 25 -106 25 -120 0 -20 2 -22 10 -10 8 12 10 10 11 -10 1 -14 1
-31 0 -38 -3 -19 94 -329 125 -398 7 -16 16 -50 20 -74 6 -35 9 -40 15 -25 6
17 8 16 8 -8 1 -25 19 -77 56 -162 8 -16 11 -33 9 -37 -3 -4 2 -5 11 -2 16 7
12 45 -6 52 -5 2 -9 12 -9 23 0 10 -10 37 -21 60 -19 36 -27 63 -31 107 -1 6
-5 12 -9 12 -4 0 -10 19 -14 43 -4 23 -11 47 -15 52 -4 6 -16 39 -25 75 -9 36
-21 74 -25 85 -28 68 -121 485 -154 685 -28 173 -56 502 -63 730 -24 916 176
1813 587 2631 50 99 101 197 115 217 14 20 25 40 25 44 0 10 206 346 220 358
3 3 21 28 39 55 34 49 170 232 244 328 20 27 37 45 38 40 0 -4 3 0 7 9 21 52
393 439 577 602 55 48 111 98 125 110 14 12 41 33 60 47 19 13 39 30 45 37 5
6 33 29 61 50 28 20 92 69 144 107 51 39 95 68 98 67 3 -2 8 1 11 6 9 15 256
178 308 204 24 12 43 25 43 30 0 4 5 8 11 8 6 0 37 15 68 34 80 48 311 166
411 211 47 20 108 47 135 60 71 32 175 72 208 80 15 4 27 11 27 17 0 5 4 7 9
4 4 -3 25 4 47 14 21 11 45 20 54 20 8 0 28 7 44 15 16 8 34 14 40 14 6 -1 28
5 48 14 20 9 78 27 127 40 50 13 88 27 84 30 -3 4 3 7 15 7 12 0 74 13 139 29
107 26 299 68 428 92 173 32 764 91 910 90 61 0 568 -30 579 -34 34 -13 81 56
71 102 -7 34 -33 47 -105 50 -30 2 -86 6 -125 11 -91 10 -602 10 -770 0z
m-4499 -2798 c-17 -16 -18 -16 -5 5 7 12 15 20 18 17 3 -2 -3 -12 -13 -22z"/>
<path d="M7695 11846 c-14 -10 -19 -25 -19 -55 2 -47 17 -66 65 -76 19 -4 39
-11 45 -17 7 -5 16 -8 20 -6 19 5 132 -26 127 -35 -4 -6 5 -7 21 -3 17 4 25 3
22 -3 -4 -5 3 -7 16 -3 12 3 19 1 15 -5 -4 -5 20 -14 56 -21 34 -7 63 -16 65
-21 2 -5 12 -6 24 -3 14 3 19 1 14 -6 -4 -8 -2 -10 8 -6 8 3 28 -1 44 -10 16
-8 32 -13 34 -11 9 10 68 -17 61 -28 -3 -6 -1 -7 5 -3 12 7 135 -37 161 -58
11 -8 13 -8 7 1 -5 9 -2 11 8 7 9 -3 13 -10 10 -15 -3 -5 4 -9 14 -9 30 0 83
-25 75 -35 -5 -4 -2 -5 5 -1 16 9 54 -3 47 -15 -6 -8 15 -13 43 -10 6 1 12 -3
12 -9 0 -5 6 -10 14 -10 8 0 22 -7 30 -16 9 -8 20 -12 26 -9 5 3 10 1 10 -4 0
-6 3 -10 8 -10 16 4 72 -23 66 -32 -5 -9 9 -13 33 -10 6 1 14 -3 18 -9 3 -5
14 -10 24 -10 10 0 24 -7 31 -15 7 -8 20 -15 29 -15 10 0 26 -7 37 -15 19 -15
19 -15 -1 -9 -16 5 -17 4 -5 -4 8 -6 17 -9 22 -6 11 7 78 -32 70 -41 -4 -5 -2
-5 4 -2 7 4 25 0 40 -8 16 -8 25 -15 19 -15 -5 0 14 -11 43 -25 35 -16 51 -29
46 -36 -4 -7 -3 -9 4 -5 13 8 63 -14 56 -25 -3 -5 0 -10 5 -10 32 -4 62 -20
55 -30 -3 -5 3 -6 12 -2 13 5 15 3 9 -7 -6 -9 -4 -11 4 -5 7 4 22 -1 34 -13
12 -10 36 -27 54 -37 18 -10 29 -23 26 -28 -3 -6 -1 -7 6 -3 15 10 43 -13 34
-27 -3 -6 -1 -7 6 -3 13 8 44 -12 36 -23 -2 -4 6 -7 18 -7 12 1 22 -4 22 -11
0 -6 4 -15 9 -20 5 -5 6 -3 2 5 -12 20 9 13 32 -11 12 -13 19 -27 15 -32 -5
-4 -3 -5 4 -1 6 3 28 -5 49 -19 20 -14 33 -25 28 -25 -5 0 7 -8 26 -18 19 -10
34 -23 32 -31 -1 -7 2 -10 8 -6 13 8 42 -14 34 -26 -3 -5 -2 -8 3 -7 4 2 33
-14 63 -34 30 -19 65 -39 78 -43 12 -3 22 -11 22 -16 0 -5 6 -9 14 -9 8 0 17
-8 19 -17 3 -10 5 1 6 23 1 34 -7 52 -41 99 -63 85 -286 262 -446 355 -75 44
-136 86 -177 123 -11 10 -44 33 -74 50 -29 18 -70 42 -90 55 -20 12 -43 25
-51 29 -8 3 -49 25 -90 48 -41 24 -127 68 -190 99 -63 32 -131 66 -150 76 -45
23 -355 151 -440 181 -36 13 -67 25 -70 28 -3 3 -12 7 -20 8 -17 2 -206 59
-230 70 -8 3 -19 7 -25 8 -5 2 -61 17 -122 34 -126 35 -151 37 -178 17z"/>
<path d="M6120 11643 c-543 -29 -1149 -159 -1638 -349 -354 -138 -821 -374
-837 -424 -11 -35 -24 -14 417 -681 232 -349 291 -429 320 -429 5 0 42 19 81
42 105 61 392 202 494 242 282 110 561 187 871 240 50 9 286 34 384 41 61 5
91 11 100 22 10 13 12 135 10 617 -2 331 -8 617 -13 637 -13 51 -15 52 -189
42z m-266 -465 c25 -4 54 -44 62 -85 7 -38 -7 -44 -39 -15 -11 9 -17 11 -13 5
7 -12 -7 -18 -29 -13 -62 15 -74 17 -70 10 4 -7 -18 -22 -36 -24 -10 -1 -159
-129 -159 -136 0 -3 -15 -23 -34 -43 -26 -29 -36 -51 -45 -100 -6 -35 -11 -73
-11 -84 0 -34 -30 -96 -63 -131 -84 -89 -213 -105 -314 -39 -27 17 -51 30 -55
29 -4 -1 -10 7 -13 18 -4 11 -10 18 -15 15 -4 -3 -16 12 -25 33 -23 49 -44 72
-66 72 -15 0 -18 -9 -16 -73 2 -134 -63 -225 -178 -246 -135 -25 -297 67 -359
207 -26 58 -17 91 36 129 26 19 48 37 50 41 3 8 247 175 289 198 10 6 27 18
37 27 10 10 22 14 25 10 4 -3 7 -1 7 5 0 7 6 12 14 12 8 0 16 4 18 8 3 9 83
57 138 83 53 25 114 32 170 19 51 -12 90 -47 90 -79 0 -13 -2 -13 -9 -3 -6 10
-10 9 -14 -7 -4 -16 -13 -21 -39 -21 -18 0 -39 4 -46 9 -7 4 -32 4 -55 -1 -23
-5 -48 -9 -54 -10 -7 -1 -13 -5 -13 -10 0 -4 -5 -8 -10 -8 -13 0 -216 -128
-230 -145 -19 -23 21 -36 78 -25 53 10 177 56 202 75 19 14 110 55 130 58 8 2
20 6 27 10 10 7 48 2 163 -20 40 -7 63 7 157 98 49 48 104 95 122 105 97 56
98 56 195 42z"/>
<path d="M5199 10825 c-54 -20 -119 -54 -117 -63 0 -4 -2 -15 -6 -24 -13 -28
12 -81 47 -104 80 -52 154 -54 202 -7 55 56 70 134 34 184 -18 26 -26 29 -72
28 -29 0 -68 -6 -88 -14z"/>
<path d="M4650 10683 c-14 -3 -29 -8 -35 -13 -5 -4 -27 -13 -48 -20 -43 -14
-71 -48 -60 -76 17 -47 114 -107 173 -107 91 0 150 84 124 179 -10 38 -71 52
-154 37z"/>
<path d="M6459 11633 c-12 -13 -14 -122 -12 -630 2 -532 4 -617 18 -643 l16
-30 100 0 c92 0 102 2 124 24 13 13 26 35 29 48 3 12 26 131 52 263 25 132 75
385 110 562 65 330 69 374 33 393 -10 6 -91 14 -181 20 -233 14 -273 13 -289
-7z"/>
<path d="M7644 11492 c-24 -16 -42 -73 -63 -202 -12 -74 -33 -200 -48 -280
-14 -80 -29 -170 -33 -200 -5 -30 -25 -149 -45 -265 -20 -115 -38 -223 -41
-240 -3 -18 2 -44 13 -65 16 -31 26 -36 102 -57 307 -82 687 -246 972 -418
148 -90 418 -280 434 -306 15 -23 59 -8 99 35 68 72 66 68 50 127 -21 77 -18
236 5 351 11 53 26 144 33 203 8 70 17 109 26 112 7 3 15 3 18 0 12 -11 64
-284 70 -362 5 -57 2 -97 -9 -140 -9 -32 -14 -61 -11 -64 2 -2 14 6 26 20 13
13 50 53 83 89 33 36 83 92 111 125 29 33 116 134 194 225 148 172 194 238
184 261 -3 8 -29 32 -57 55 -563 444 -1249 788 -1933 969 -135 36 -161 40
-180 27z m437 -214 c35 -7 124 -56 146 -81 13 -14 13 -18 3 -12 -13 8 -13 7
-1 -9 10 -12 16 -13 21 -6 5 8 9 6 13 -5 4 -9 3 -13 -3 -10 -6 3 -10 3 -10 -2
1 -12 26 -43 32 -38 2 3 5 -1 5 -7 0 -7 7 -42 16 -78 22 -96 11 -149 -73 -335
-21 -45 -53 -139 -70 -203 -6 -23 -15 -40 -20 -37 -6 4 -10 -1 -10 -10 0 -28
-29 -74 -55 -88 l-26 -13 26 -47 c14 -27 25 -64 25 -84 0 -64 -73 -133 -142
-133 -36 0 -85 40 -97 81 -15 49 -14 80 3 121 18 41 13 49 -40 76 -94 48 -154
164 -139 266 15 94 11 128 -24 201 -59 125 -38 235 65 346 94 99 208 134 355
107z m673 -475 c34 -121 31 -208 -10 -283 -42 -78 -71 -63 -81 42 -6 70 7 147
37 215 19 44 45 56 54 26z"/>
<path d="M8301 10964 c0 -11 3 -14 6 -6 3 7 2 16 -1 19 -3 4 -6 -2 -5 -13z"/>
<path d="M3337 10686 c-279 -193 -498 -378 -736 -619 -186 -190 -222 -228
-296 -317 -38 -46 -78 -92 -87 -102 -10 -10 -18 -21 -18 -25 0 -4 -10 -18 -23
-32 -32 -35 -231 -310 -247 -341 -7 -14 -16 -27 -20 -30 -22 -16 -330 -562
-330 -586 0 -22 49 -60 108 -84 31 -13 75 -31 97 -40 210 -91 255 -110 262
-110 4 0 34 -13 65 -29 32 -16 74 -35 95 -42 21 -6 83 -32 138 -56 55 -25 138
-61 185 -80 47 -19 113 -47 147 -63 78 -36 139 -53 167 -46 16 4 36 34 71 103
56 111 106 199 190 328 51 80 181 262 195 275 3 3 19 23 35 45 17 22 32 42 35
45 3 3 38 43 79 90 109 124 312 324 421 414 52 43 104 86 116 95 11 10 63 48
115 85 137 97 132 93 126 131 -3 18 -27 66 -54 105 -26 39 -52 79 -58 88 -10
16 -71 109 -149 227 -22 33 -60 92 -85 130 -25 39 -50 75 -54 80 -4 6 -41 62
-82 125 -41 63 -87 133 -103 155 -16 22 -36 54 -45 70 -24 46 -82 105 -104
105 -11 0 -81 -42 -156 -94z m-583 -876 c23 -11 58 -36 80 -55 46 -42 81 -45
115 -9 68 71 192 91 284 45 170 -83 226 -300 129 -496 -25 -51 -99 -145 -140
-178 -12 -10 -28 -24 -35 -30 -6 -7 -32 -28 -57 -47 -77 -58 -119 -103 -162
-172 -29 -46 -50 -69 -67 -73 -14 -3 -34 -8 -43 -11 -19 -6 -98 60 -98 82 0 8
-4 14 -8 14 -4 0 -15 13 -25 29 -15 25 -167 233 -196 267 -5 7 -31 45 -57 85
-62 97 -94 186 -94 268 0 54 5 73 36 130 43 80 67 107 119 133 84 43 156 49
219 18z"/>
<path d="M2798 9550 c-3 -8 -9 -28 -15 -45 -10 -35 -29 -37 -105 -12 -27 9
-48 12 -48 7 0 -4 24 -16 53 -25 28 -10 56 -21 61 -25 4 -5 -14 -20 -40 -34
-34 -17 -43 -25 -28 -26 12 0 38 11 58 25 l37 25 45 -30 44 -31 -20 -39 c-23
-45 -24 -50 -10 -50 5 0 12 11 16 25 12 48 27 48 91 -3 58 -45 60 -49 67 -104
4 -32 11 -58 17 -58 6 0 7 20 3 52 -7 48 -6 51 12 44 37 -15 54 -18 54 -9 0 5
-16 15 -36 22 l-37 13 7 59 c7 72 -9 79 -18 9 -4 -27 -9 -50 -13 -50 -3 0 -30
21 -59 46 l-54 46 17 29 c10 16 37 50 60 76 24 25 40 49 37 52 -6 6 -77 -66
-110 -113 l-21 -29 -40 29 c-39 29 -39 29 -26 63 8 18 12 43 10 55 -2 15 -5
17 -9 6z"/>
<path d="M2789 10723 c-13 -16 -12 -17 4 -4 16 13 21 21 13 21 -2 0 -10 -8
-17 -17z"/>
<path d="M10217 10503 c-12 -11 -8 -59 6 -87 8 -14 17 -23 20 -19 4 3 7 -1 7
-10 0 -8 62 -79 138 -157 75 -78 153 -160 172 -182 19 -22 49 -55 65 -72 17
-17 57 -64 89 -103 32 -40 63 -70 69 -66 6 3 7 1 3 -6 -5 -7 8 -29 31 -55 49
-55 68 -78 90 -113 9 -15 23 -32 30 -36 7 -4 13 -15 13 -24 0 -8 11 -24 25
-35 14 -11 25 -25 25 -33 0 -7 18 -35 40 -61 22 -27 40 -52 40 -57 0 -4 19
-34 42 -65 24 -31 54 -78 68 -103 14 -26 36 -62 50 -79 14 -18 25 -38 25 -44
0 -6 3 -13 6 -16 3 -3 22 -34 41 -70 20 -36 48 -87 62 -113 14 -26 26 -55 26
-65 0 -13 2 -14 9 -4 6 10 10 8 16 -10 4 -12 7 -26 6 -30 0 -3 11 -27 24 -53
14 -25 25 -53 25 -61 0 -8 5 -12 11 -9 6 4 9 0 7 -11 -2 -12 2 -18 10 -16 8 1
11 -2 8 -7 -4 -5 3 -25 14 -43 11 -18 20 -41 20 -50 0 -10 5 -18 11 -18 5 0 7
-5 3 -11 -3 -6 -2 -14 4 -18 5 -3 38 -78 72 -166 33 -88 65 -167 69 -175 5 -9
12 -30 16 -48 4 -19 11 -29 17 -26 7 4 8 2 4 -5 -8 -12 17 -96 55 -193 11 -26
19 -56 19 -67 0 -12 4 -21 8 -21 4 0 8 -8 9 -17 4 -42 24 -118 34 -128 14 -13
2 105 -12 120 -5 5 -9 21 -9 37 0 15 -6 47 -14 70 -7 24 -19 63 -26 88 -66
232 -106 351 -197 580 -86 216 -257 562 -348 705 -18 28 -58 93 -90 145 -55
91 -202 310 -215 320 -3 3 -41 52 -85 110 -163 216 -489 575 -586 645 -28 20
-48 31 -44 23 3 -7 0 -5 -8 4 -8 10 -17 15 -20 11z"/>
<path d="M9859 10259 c-30 -33 -70 -78 -89 -99 -19 -21 -46 -53 -60 -71 -14
-17 -42 -50 -62 -73 -21 -22 -40 -49 -44 -58 -3 -10 -10 -18 -15 -18 -5 0 -9
-4 -9 -9 0 -5 -12 -23 -27 -39 -91 -98 -110 -121 -107 -125 2 -2 -7 -10 -21
-17 -14 -7 -25 -17 -25 -22 0 -4 -8 -16 -17 -26 -10 -10 -49 -54 -88 -97 -38
-43 -81 -91 -95 -106 -14 -15 -34 -40 -45 -55 -11 -15 -26 -33 -33 -41 -7 -7
-16 -28 -19 -46 -5 -31 -1 -37 43 -73 27 -21 51 -41 54 -44 3 -3 23 -17 45
-31 22 -15 74 -59 115 -100 71 -71 75 -72 81 -49 10 36 10 153 0 168 -5 9 -19
11 -43 7 -53 -10 -62 8 -54 111 16 198 111 408 239 533 60 58 73 52 82 -41 10
-97 38 -172 76 -199 78 -55 148 -42 198 37 17 25 33 59 36 74 3 16 13 34 21
41 22 18 39 -5 52 -73 13 -68 74 -204 103 -231 12 -11 38 -21 59 -22 20 -1 43
-6 51 -10 18 -12 165 -8 209 5 19 5 66 10 105 10 77 0 145 15 145 32 0 5 -15
29 -32 52 -18 22 -38 48 -45 56 -165 213 -400 464 -529 566 -45 35 -98 82
-118 104 -51 57 -72 53 -137 -21z"/>
<path d="M5975 9883 c-121 -16 -138 -18 -187 -28 -159 -31 -278 -59 -305 -71
-17 -8 -37 -14 -44 -14 -17 0 -241 -70 -254 -79 -5 -4 -32 -15 -60 -25 -27
-10 -57 -20 -65 -23 -8 -3 -22 -7 -30 -9 -8 -2 -16 -8 -18 -13 -2 -6 -8 -11
-13 -11 -6 0 -36 -12 -67 -27 -31 -15 -61 -26 -66 -24 -5 1 -12 -2 -15 -7 -3
-5 -58 -37 -121 -71 -128 -69 -242 -138 -251 -153 -3 -5 -10 -9 -15 -9 -5 1
-17 -6 -27 -14 -10 -9 -23 -13 -29 -9 -6 4 -8 3 -5 -2 3 -5 -20 -27 -51 -47
-32 -21 -72 -51 -90 -68 -17 -16 -32 -28 -32 -25 0 3 -10 -5 -23 -17 -12 -12
-42 -38 -67 -57 -130 -102 -410 -382 -410 -410 0 -5 -3 -9 -7 -8 -5 2 -10 -1
-13 -7 -3 -5 -17 -21 -32 -36 -16 -14 -28 -30 -28 -35 0 -5 -15 -25 -33 -44
-17 -19 -48 -58 -66 -85 -19 -28 -38 -52 -41 -55 -7 -6 -100 -146 -116 -175
-6 -11 -25 -46 -42 -78 -18 -31 -44 -76 -59 -100 -30 -47 -77 -141 -88 -178
-4 -13 -13 -31 -20 -39 -6 -8 -18 -31 -25 -50 -7 -19 -19 -48 -26 -65 -7 -16
-27 -68 -44 -115 -17 -47 -38 -101 -45 -120 -58 -146 -139 -524 -161 -747 -7
-70 5 -85 48 -62 13 7 26 12 31 11 4 -1 7 2 7 7 0 19 115 52 219 63 113 11
410 5 611 -12 106 -10 423 -60 597 -95 40 -8 100 -15 133 -15 53 0 64 3 85 26
14 15 25 31 25 36 0 5 4 7 9 4 5 -3 11 4 15 17 3 12 18 36 33 53 15 16 34 42
42 56 7 14 26 40 42 58 16 17 29 33 29 36 0 3 55 84 82 119 5 6 54 73 109 150
56 77 128 176 160 220 32 44 65 87 74 96 8 9 15 19 15 23 0 15 38 55 45 48 4
-4 6 0 3 8 -2 8 4 24 14 35 11 11 34 43 53 70 29 45 76 108 105 142 5 7 10 15
10 18 0 14 47 74 53 68 4 -3 7 -1 7 5 0 6 27 48 60 94 34 46 79 109 102 142
22 32 48 66 57 76 9 9 24 30 33 46 10 16 41 61 70 101 29 40 109 150 178 245
68 95 128 178 133 183 4 6 36 49 70 96 34 48 70 97 79 110 218 301 303 408
329 409 3 0 28 21 55 48 27 26 64 58 82 70 38 28 41 45 7 60 -13 6 -137 34
-276 62 -283 56 -293 61 -305 141 -7 48 -21 80 -38 91 -15 11 -74 8 -201 -9z"/>
<path d="M9590 9763 c0 -6 -3 -20 -7 -30 -7 -17 -6 -17 11 0 14 14 16 21 7 30
-8 8 -11 8 -11 0z"/>
<path d="M9517 9697 c-3 -8 3 -14 16 -15 12 0 17 2 12 6 -6 4 -13 11 -16 15
-4 4 -9 2 -12 -6z"/>
<path d="M9606 9683 c-6 -14 -5 -15 5 -6 7 7 10 15 7 18 -3 3 -9 -2 -12 -12z"/>
<path d="M9620 9660 c0 -5 5 -10 10 -10 6 0 10 5 10 10 0 6 -4 10 -10 10 -5 0
-10 -4 -10 -10z"/>
<path d="M9995 9630 c-3 -5 -1 -10 4 -10 6 0 11 5 11 10 0 6 -2 10 -4 10 -3 0
-8 -4 -11 -10z"/>
<path d="M7777 9612 c-9 -10 -23 -36 -31 -58 -8 -21 -19 -38 -25 -36 -6 1 -11
-4 -11 -12 0 -22 -13 -26 -87 -32 -44 -3 -113 3 -198 17 -129 21 -205 21 -205
-2 0 -6 13 -29 28 -52 35 -52 57 -110 167 -452 190 -586 217 -673 240 -740 13
-38 73 -225 135 -415 62 -190 134 -410 160 -490 46 -138 172 -529 247 -765 20
-60 43 -130 53 -155 10 -25 21 -61 25 -80 4 -19 11 -41 16 -50 7 -13 72 -206
83 -250 3 -8 5 -17 7 -20 1 -3 3 -10 3 -17 1 -13 40 -57 77 -88 96 -81 306
-154 490 -171 180 -16 236 68 260 387 13 191 8 311 -27 540 -25 172 -44 253
-66 281 -7 9 -61 32 -120 52 -115 38 -246 100 -343 161 -82 52 -214 186 -258
263 -61 104 -72 156 -72 332 0 140 3 165 29 259 16 57 46 147 68 200 22 53 50
126 64 164 28 76 86 298 80 304 -2 3 -27 -2 -55 -11 -87 -26 -97 -10 -82 125
12 106 36 176 96 280 l46 81 -35 34 c-20 19 -36 38 -36 42 0 4 -20 21 -45 37
-24 17 -45 33 -45 38 0 4 -5 7 -10 7 -6 0 -41 20 -78 44 -124 81 -439 246
-469 246 -8 0 -12 4 -9 8 10 17 -51 11 -67 -6z"/>
<path d="M9647 9623 c-4 -3 -7 -11 -7 -17 0 -6 5 -5 12 2 6 6 9 14 7 17 -3 3
-9 2 -12 -2z"/>
<path d="M10012 9590 c0 -14 2 -19 5 -12 2 6 2 18 0 25 -3 6 -5 1 -5 -13z"/>
<path d="M9940 9570 c0 -5 5 -10 10 -10 6 0 10 5 10 10 0 6 -4 10 -10 10 -5 0
-10 -4 -10 -10z"/>
<path d="M9456 9561 c-4 -7 -5 -15 -2 -18 9 -9 19 4 14 18 -4 11 -6 11 -12 0z"/>
<path d="M9725 9550 c-3 -5 -1 -10 4 -10 6 0 11 5 11 10 0 6 -2 10 -4 10 -3 0
-8 -4 -11 -10z"/>
<path d="M9870 9540 c-13 -8 -13 -10 2 -10 9 0 20 5 23 10 8 13 -5 13 -25 0z"/>
<path d="M9793 9533 c9 -2 25 -2 35 0 9 3 1 5 -18 5 -19 0 -27 -2 -17 -5z"/>
<path d="M9411 9374 c0 -11 3 -14 6 -6 3 7 2 16 -1 19 -3 4 -6 -2 -5 -13z"/>
<path d="M9410 9310 c0 -5 5 -10 10 -10 6 0 10 5 10 10 0 6 -4 10 -10 10 -5 0
-10 -4 -10 -10z"/>
<path d="M10854 9233 c-9 -63 19 -404 51 -603 16 -99 20 -267 7 -286 -4 -6
-23 -15 -42 -19 -79 -16 -78 -14 -79 -207 -1 -95 -6 -202 -11 -238 -17 -112
-17 -111 33 -103 73 11 528 140 635 179 52 19 66 43 53 87 -68 231 -314 759
-480 1027 -80 131 -136 210 -147 210 -7 0 -16 -20 -20 -47z"/>
<path d="M8525 8939 c-9 -28 -15 -52 -12 -55 2 -3 10 15 18 40 7 25 17 43 21
40 4 -3 5 2 2 10 -9 23 -11 21 -29 -35z"/>
<path d="M8806 8934 c6 -57 44 -134 84 -168 32 -27 93 -36 105 -16 3 6 -3 10
-15 10 -12 0 -18 5 -15 10 3 6 1 10 -5 10 -6 0 -8 5 -4 12 5 7 2 9 -7 6 -10
-4 -15 3 -16 24 -1 17 -8 36 -14 44 -6 8 -9 14 -6 14 4 0 -6 13 -21 29 -15 15
-30 27 -33 25 -4 -2 -14 7 -23 21 -25 38 -35 30 -30 -21z"/>
<path d="M8732 8920 c0 -14 2 -19 5 -12 2 6 2 18 0 25 -3 6 -5 1 -5 -13z"/>
<path d="M8498 8835 c-2 -19 0 -35 4 -35 4 0 8 16 8 35 0 19 -2 35 -4 35 -2 0
-6 -16 -8 -35z"/>
<path d="M8771 8784 c0 -11 3 -14 6 -6 3 7 2 16 -1 19 -3 4 -6 -2 -5 -13z"/>
<path d="M8608 8783 c7 -3 16 -2 19 1 4 3 -2 6 -13 5 -11 0 -14 -3 -6 -6z"/>
<path d="M8802 8745 c6 -14 15 -25 20 -25 5 0 1 11 -8 25 -9 14 -18 25 -20 25
-2 0 2 -11 8 -25z"/>
<path d="M8518 8753 c7 -3 16 -2 19 1 4 3 -2 6 -13 5 -11 0 -14 -3 -6 -6z"/>
<path d="M8978 8663 c6 -2 18 -2 25 0 6 3 1 5 -13 5 -14 0 -19 -2 -12 -5z"/>
<path d="M8607 8553 c-2 -4 -7 -24 -11 -43 l-6 -35 15 39 c13 35 15 61 2 39z"/>
<path d="M8631 8524 c0 -11 3 -14 6 -6 3 7 2 16 -1 19 -3 4 -6 -2 -5 -13z"/>
<path d="M1496 8455 c-8 -8 -18 -25 -21 -38 -6 -19 -21 -57 -66 -162 -43 -103
-138 -395 -179 -550 -18 -66 -36 -131 -40 -145 -5 -14 -12 -43 -15 -65 -4 -22
-13 -65 -20 -95 -8 -30 -23 -118 -35 -195 -11 -77 -27 -183 -35 -235 -19 -125
-38 -441 -34 -557 2 -50 2 -90 -1 -88 -3 2 -2 -85 2 -193 9 -267 28 -465 69
-702 10 -63 21 -124 23 -135 1 -11 6 -27 9 -35 3 -8 9 -37 12 -65 4 -27 10
-54 13 -60 4 -5 8 -21 9 -35 7 -60 13 -69 47 -75 18 -4 48 -2 67 3 19 5 201
58 404 117 204 59 379 110 390 112 11 3 94 27 185 53 91 26 180 51 198 55 18
4 45 17 61 31 26 22 28 27 20 66 -83 414 -115 809 -89 1118 26 305 51 478 100
685 47 194 133 463 190 592 25 56 25 75 1 97 -10 9 -146 71 -302 137 -156 66
-306 131 -334 143 -27 13 -102 45 -165 71 -63 26 -177 74 -252 106 -141 61
-186 70 -212 44z m764 -1617 c0 -57 5 -143 11 -193 17 -137 17 -145 -14 -145
-79 0 -517 -90 -662 -136 -110 -34 -112 -36 -92 -68 41 -63 10 -75 -74 -31
-35 19 -69 34 -76 35 -6 0 -32 -29 -58 -65 -25 -36 -50 -63 -56 -60 -5 4 -9
36 -9 73 0 37 -4 72 -8 79 -4 6 -30 20 -57 30 -28 10 -50 25 -50 32 0 9 23 20
60 30 l60 16 18 95 c10 52 23 99 27 104 6 5 17 -4 27 -23 10 -18 26 -46 36
-62 l17 -29 88 88 c48 49 110 105 137 125 140 99 449 205 603 207 l72 0 0
-102z"/>
<path d="M2040 6866 c-47 -12 -110 -31 -140 -40 -56 -18 -221 -94 -230 -106
-3 -4 -14 -12 -25 -19 l-20 -13 20 7 c11 4 25 8 30 9 6 2 24 9 40 15 69 29
244 82 300 91 33 5 85 10 116 10 60 0 83 14 77 47 -5 26 -66 26 -168 -1z"/>
<path d="M2015 6749 c-208 -43 -368 -109 -447 -184 -27 -25 -48 -47 -48 -49 0
-7 62 11 135 39 116 45 257 83 372 100 172 26 178 28 181 52 2 12 -2 31 -8 42
-14 26 -60 26 -185 0z"/>
<path d="M2025 6600 c-241 -50 -493 -133 -539 -179 -17 -17 -28 -33 -25 -35 3
-3 41 5 85 19 221 67 381 104 544 125 47 6 95 13 106 15 27 6 37 30 24 56 -14
24 -70 24 -195 -1z"/>
<path d="M1285 6483 c-9 -61 -21 -83 -45 -83 -29 0 -32 -16 -5 -28 18 -9 25
-19 25 -41 0 -42 13 -45 48 -11 32 30 46 31 87 3 36 -24 46 -15 23 23 -18 31
-19 38 -7 62 7 15 15 30 17 35 2 4 -17 7 -41 7 -43 0 -46 2 -63 40 -10 22 -21
40 -25 40 -4 0 -10 -21 -14 -47z"/>
<path d="M10568 8343 c7 -3 16 -2 19 1 4 3 -2 6 -13 5 -11 0 -14 -3 -6 -6z"/>
<path d="M6457 8226 c10 -150 3 -159 -136 -190 -131 -29 -138 -24 -167 112
-10 45 -22 82 -27 82 -10 0 -8 -15 18 -138 14 -68 15 -85 4 -98 -7 -9 -52 -35
-100 -59 -90 -46 -208 -131 -296 -213 -69 -65 -210 -227 -256 -293 l-37 -54
21 -55 c92 -245 221 -424 412 -572 50 -39 77 -67 77 -80 0 -11 -34 -68 -75
-126 -42 -59 -71 -108 -65 -110 12 -4 16 -1 100 123 42 62 61 81 81 83 29 3
216 -86 239 -113 12 -15 11 -51 -6 -147 -4 -23 -3 -38 3 -38 6 0 15 33 22 72
16 98 28 110 92 93 27 -7 81 -19 120 -25 85 -15 89 -21 89 -151 0 -53 4 -89
10 -89 6 0 10 41 10 104 0 70 4 107 12 112 6 4 48 9 92 11 45 2 105 9 135 14
75 15 79 9 92 -137 11 -133 17 -160 28 -130 4 10 1 71 -6 135 -9 74 -10 123
-4 137 5 12 37 32 77 49 117 49 226 106 294 154 68 48 237 211 284 273 l27 36
-21 84 c-82 319 -253 599 -467 760 -37 28 -53 47 -53 63 0 14 28 57 66 104 37
45 64 84 60 88 -3 3 -7 4 -9 2 -21 -28 -107 -128 -122 -141 -11 -10 -29 -20
-40 -23 -29 -8 -214 81 -224 107 -5 13 4 60 25 131 19 61 31 113 28 116 -10
11 -24 -19 -47 -105 -40 -145 -29 -137 -160 -128 -62 3 -122 10 -135 15 -31
12 -42 47 -42 132 0 78 -7 117 -21 117 -5 0 -6 -42 -2 -94z m251 -222 c104
-20 292 -99 292 -123 0 -5 -20 -50 -44 -102 -117 -251 -176 -512 -146 -639 16
-68 73 -130 119 -130 17 0 49 9 70 20 105 53 156 185 191 490 11 96 20 181 20
189 0 26 69 -50 135 -149 103 -154 199 -382 212 -502 5 -52 3 -62 -22 -98 -42
-60 -193 -200 -274 -254 -83 -55 -232 -127 -334 -160 -491 -160 -1123 151
-1361 671 -46 101 -54 148 -32 191 25 49 206 252 286 321 196 169 405 265 633
290 84 9 154 5 255 -15z"/>
<path d="M10722 8265 c0 -16 2 -22 5 -12 2 9 2 23 0 30 -3 6 -5 -1 -5 -18z"/>
<path d="M8502 8230 c0 -14 2 -19 5 -12 2 6 2 18 0 25 -3 6 -5 1 -5 -13z"/>
<path d="M10724 8100 c0 -58 1 -81 3 -52 2 28 2 76 0 105 -2 28 -3 5 -3 -53z"/>
<path d="M8461 8154 c0 -11 3 -14 6 -6 3 7 2 16 -1 19 -3 4 -6 -2 -5 -13z"/>
<path d="M8431 8054 c0 -11 3 -14 6 -6 3 7 2 16 -1 19 -3 4 -6 -2 -5 -13z"/>
<path d="M11415 7821 c-33 -9 -64 -19 -70 -22 -5 -3 -28 -11 -50 -17 -220 -63
-462 -136 -512 -154 l-62 -23 -37 -89 c-54 -130 -119 -220 -222 -308 l-88 -76
7 -73 c4 -41 17 -153 28 -249 37 -316 37 -691 0 -955 -43 -307 -92 -520 -178
-784 -18 -56 -19 -67 -7 -85 18 -28 31 -35 391 -187 171 -72 344 -146 386
-165 42 -19 79 -34 83 -34 3 0 34 -13 68 -29 129 -60 239 -101 272 -101 34 0
35 1 64 83 62 170 130 410 186 657 86 376 129 913 108 1348 -15 293 -48 580
-92 792 -26 124 -114 467 -122 478 -14 16 -78 13 -153 -7z m-287 -1340 c102
-33 186 -107 216 -192 21 -58 39 -62 88 -22 18 15 35 30 38 34 3 3 23 18 45
32 77 52 105 30 99 -79 -1 -38 -6 -80 -9 -94 -3 -14 -14 -105 -24 -204 -13
-122 -23 -181 -33 -187 -26 -17 -55 0 -127 74 -45 47 -78 74 -87 70 -8 -3 -32
-42 -53 -87 -59 -126 -132 -181 -271 -206 -93 -17 -178 -6 -233 31 -41 27 -87
79 -71 79 4 0 0 8 -9 18 -25 28 -34 156 -14 204 17 40 17 39 -56 53 -36 8 -77
68 -77 112 0 42 43 111 73 118 12 2 40 6 62 7 38 3 40 5 41 35 2 56 149 181
244 206 74 20 88 20 158 -2z"/>
<path d="M10987 6410 c-16 -5 -35 -14 -42 -20 -8 -7 -19 -9 -25 -5 -6 4 -9 3
-8 -2 2 -5 -14 -24 -34 -42 -43 -37 -47 -60 -17 -81 130 -93 196 -145 209
-165 13 -22 13 -26 -1 -41 -9 -8 -31 -19 -50 -24 -41 -10 -162 -60 -169 -69
-3 -4 -20 -13 -38 -21 -38 -15 -59 -43 -63 -80 -2 -25 2 -42 24 -90 6 -14 9
-29 8 -35 -2 -5 0 -7 4 -3 4 4 16 -2 28 -12 41 -39 202 -38 280 1 44 23 89 64
80 73 -4 3 -2 6 4 6 10 0 41 69 78 173 28 80 66 76 169 -21 46 -44 60 -52 66
-41 10 17 40 235 40 286 0 21 -5 33 -14 33 -7 0 -46 -31 -87 -70 -40 -38 -78
-70 -84 -70 -6 0 -21 7 -33 16 -17 11 -22 25 -22 56 0 104 -48 180 -142 227
-62 31 -107 37 -161 21z"/>
<path d="M10780 6174 c15 -37 12 -79 -7 -119 -9 -19 -14 -37 -11 -40 9 -10
160 57 166 74 9 23 -102 111 -140 111 -15 0 -16 -4 -8 -26z"/>
<path d="M8383 7775 c0 -27 2 -38 4 -22 2 15 2 37 0 50 -2 12 -4 0 -4 -28z"/>
<path d="M9760 7644 c-78 -21 -182 -72 -301 -148 -56 -36 -108 -66 -116 -66
-14 0 -20 20 -27 104 -8 101 -75 140 -130 76 -36 -43 -41 -89 -23 -194 38
-220 49 -278 73 -400 13 -70 29 -196 34 -280 33 -552 33 -563 22 -724 -12
-170 -28 -235 -69 -291 -38 -49 -83 -65 -188 -64 -172 2 -366 57 -568 160 -96
50 -121 51 -107 6 33 -111 132 -378 142 -386 7 -5 54 -28 103 -52 277 -134
554 -162 730 -73 52 27 157 128 197 190 62 97 71 141 79 388 4 124 11 267 15
318 5 68 3 99 -6 117 -9 17 -11 45 -6 95 7 84 -9 314 -30 415 -7 39 -14 92
-14 119 0 47 3 52 55 100 58 55 90 114 79 149 -3 11 -7 57 -8 101 -2 98 0 100
131 152 101 39 143 71 143 107 0 30 -46 74 -91 87 -43 12 -51 12 -119 -6z"/>
<path d="M11880 7603 c0 -17 5 -35 10 -38 13 -8 13 35 0 55 -7 11 -10 7 -10
-17z"/>
<path d="M10607 7531 c-4 -17 -3 -21 5 -13 5 5 8 16 6 23 -3 8 -7 3 -11 -10z"/>
<path d="M10558 7523 c7 -3 16 -2 19 1 4 3 -2 6 -13 5 -11 0 -14 -3 -6 -6z"/>
<path d="M10582 7477 c-6 -12 -13 -33 -16 -47 -3 -14 3 -5 14 19 21 45 23 70
2 28z"/>
<path d="M8450 7477 c0 -14 31 -69 36 -64 3 3 -4 20 -15 38 -12 19 -21 30 -21
26z"/>
<path d="M8510 7410 c-8 -5 -12 -12 -9 -15 4 -3 12 1 19 10 14 17 11 19 -10 5z"/>
<path d="M10495 7340 c-10 -11 -16 -22 -14 -24 2 -2 12 7 22 20 22 29 17 32
-8 4z"/>
<path d="M8540 7346 c0 -2 7 -9 15 -16 9 -7 15 -8 15 -2 0 5 -7 12 -15 16 -8
3 -15 4 -15 2z"/>
<path d="M10445 7340 c-3 -5 -1 -10 4 -10 6 0 11 5 11 10 0 6 -2 10 -4 10 -3
0 -8 -4 -11 -10z"/>
<path d="M10415 7310 c3 -5 8 -10 11 -10 2 0 4 5 4 10 0 6 -5 10 -11 10 -5 0
-7 -4 -4 -10z"/>
<path d="M10439 7284 c-23 -25 -23 -26 -2 -13 13 7 25 19 27 26 8 19 2 16 -25
-13z"/>
<path d="M8611 7277 c2 -1 13 -9 24 -17 19 -14 19 -14 6 3 -7 9 -18 17 -24 17
-6 0 -8 -1 -6 -3z"/>
<path d="M8676 7226 c10 -8 21 -12 24 -10 5 6 -21 24 -34 24 -6 0 -1 -6 10
-14z"/>
<path d="M8776 7168 c3 -4 12 -8 20 -8 8 0 14 4 14 8 0 4 -9 8 -19 8 -11 0
-17 -4 -15 -8z"/>
<path d="M8930 7096 c0 -2 7 -7 16 -10 8 -3 12 -2 9 4 -6 10 -25 14 -25 6z"/>
<path d="M8990 7080 c0 -5 5 -10 11 -10 5 0 7 5 4 10 -3 6 -8 10 -11 10 -2 0
-4 -4 -4 -10z"/>
<path d="M9028 7063 c6 -2 18 -2 25 0 6 3 1 5 -13 5 -14 0 -19 -2 -12 -5z"/>
<path d="M9808 7023 c7 -3 16 -2 19 1 4 3 -2 6 -13 5 -11 0 -14 -3 -6 -6z"/>
<path d="M9775 6953 c-32 -2 -66 -9 -74 -16 -17 -14 -11 -124 18 -357 32 -254
46 -556 32 -696 -22 -218 -77 -363 -186 -485 -37 -41 -135 -124 -135 -113 0 4
-8 0 -17 -8 -27 -23 -120 -64 -188 -83 -33 -9 -109 -19 -170 -22 -94 -4 -128
-1 -238 22 -149 30 -173 28 -162 -19 4 -17 8 -39 8 -48 1 -10 4 -18 8 -18 4 0
10 -13 14 -30 4 -16 11 -30 17 -30 7 0 6 -5 -1 -14 -7 -8 -8 -16 -4 -18 13 -5
54 -129 46 -141 -3 -5 -1 -7 5 -3 10 6 15 -9 28 -79 3 -16 11 -33 17 -37 7 -4
9 -8 5 -8 -7 0 20 -88 32 -105 9 -12 22 -60 27 -95 6 -45 3 -144 -5 -150 -11
-7 -37 -71 -37 -90 0 -8 -5 -14 -12 -13 -7 2 -10 -3 -7 -11 6 -15 -42 -50 -51
-36 -9 15 -33 0 -39 -26 -7 -28 -33 -32 -51 -7 -12 16 -14 16 -29 0 -22 -22
-32 -21 -45 1 -9 14 -10 12 -11 -14 0 -42 -22 -49 -55 -19 -23 22 -26 23 -32
7 -15 -40 -76 -51 -66 -12 4 14 0 19 -13 18 -11 0 -27 3 -38 7 -16 7 -17 5
-11 -14 6 -21 4 -22 -17 -16 -31 10 -58 35 -58 54 0 14 -2 14 -9 2 -8 -13 -20
-13 -72 -3 -34 6 -66 17 -71 24 -6 10 -11 9 -19 -4 -13 -24 -46 -23 -59 2 -7
12 -16 17 -27 13 -9 -4 -21 1 -29 11 -12 17 -13 16 -24 -3 -13 -26 -47 -27
-55 -2 -7 24 -52 33 -70 15 -21 -22 -45 -16 -56 13 -8 22 -12 24 -19 13 -8
-13 -13 -12 -40 3 -30 18 -30 18 -30 -4 0 -19 -4 -21 -31 -15 -17 3 -35 6 -40
6 -5 0 -9 9 -9 20 0 21 -15 27 -25 10 -5 -8 -11 -7 -21 1 -8 6 -14 8 -14 3 0
-5 -7 0 -15 10 -13 17 -15 17 -15 4 0 -27 -14 -29 -97 -16 l-78 13 85 5 85 5
-140 12 c-77 7 -180 20 -230 28 -49 9 -119 18 -155 21 -62 6 -67 5 -105 -25
-21 -18 -50 -50 -63 -72 -15 -26 -29 -38 -38 -35 -8 3 -14 -1 -14 -9 0 -8 -15
-35 -32 -59 -18 -24 -51 -74 -73 -110 -22 -36 -43 -66 -47 -66 -5 0 -8 -4 -8
-9 0 -5 -37 -69 -82 -143 -141 -231 -222 -410 -303 -668 -14 -46 -37 -105 -51
-131 -32 -58 -111 -149 -130 -149 -8 0 -14 -4 -14 -10 0 -5 -3 -9 -7 -8 -5 1
-19 -4 -33 -12 -14 -8 -52 -14 -85 -14 -147 -1 -287 146 -401 420 -93 225
-104 473 -29 624 44 88 135 150 218 150 76 0 162 -85 235 -231 31 -63 49 -48
127 106 43 84 77 141 87 143 10 2 15 9 12 17 -7 18 36 95 53 95 7 0 19 11 25
25 6 14 18 25 25 25 10 0 12 6 8 19 -4 13 1 24 15 34 11 8 42 42 69 75 49 60
68 98 57 109 -10 10 -446 83 -556 94 -58 5 -148 13 -200 18 -158 14 -354 50
-363 66 -28 50 -222 -24 -324 -123 -17 -17 -34 -28 -37 -25 -3 4 -6 -1 -6 -10
0 -9 -4 -17 -9 -17 -4 0 -24 -14 -42 -31 -19 -17 -27 -27 -19 -23 8 4 -11 -16
-42 -46 -31 -29 -55 -57 -52 -62 3 -5 0 -7 -7 -6 -7 2 -15 -8 -18 -22 -4 -14
-17 -29 -29 -35 -13 -6 -22 -19 -22 -32 0 -15 -10 -28 -29 -38 -21 -10 -28
-20 -24 -33 5 -21 -23 -56 -38 -47 -5 4 -6 -1 -3 -9 3 -8 -14 -57 -39 -108
-24 -51 -64 -142 -87 -203 -24 -60 -59 -148 -78 -195 -21 -50 -35 -103 -36
-130 -1 -43 1 -46 49 -78 501 -333 972 -513 1561 -598 148 -21 571 -29 758
-15 393 30 782 130 1153 295 107 47 338 169 408 215 22 14 45 28 50 31 14 7
174 116 210 143 294 220 608 544 806 832 155 225 320 533 395 738 49 134 68
189 85 247 115 377 168 782 155 1160 -8 198 -32 419 -52 468 -14 35 -6 34
-159 25z"/>
<path d="M3152 6686 c-104 -27 -197 -110 -220 -200 -27 -104 71 -277 240 -422
58 -49 399 -298 565 -413 29 -20 52 -41 53 -47 0 -6 -21 -21 -46 -34 -82 -43
-121 -116 -94 -179 17 -43 43 -62 89 -68 36 -5 44 -2 63 23 23 29 123 166 211
288 l49 69 -19 34 c-35 66 -141 156 -308 261 -355 222 -479 360 -387 432 25
21 34 22 132 17 58 -3 148 -15 200 -27 239 -53 391 -81 588 -110 206 -30 214
-31 228 -13 81 107 125 176 121 187 -15 38 -58 48 -525 126 -63 11 -180 27
-260 35 -81 9 -185 23 -232 31 -121 21 -381 27 -448 10z"/>
<path d="M3446 6394 c-54 -53 42 -170 261 -316 104 -70 149 -105 247 -195 8
-7 16 -9 20 -6 3 4 6 1 6 -5 0 -7 13 -12 29 -12 24 0 39 14 102 96 41 53 81
103 89 112 8 9 14 17 12 19 -2 3 28 54 38 63 17 14 50 70 50 83 0 23 -55 43
-180 65 -146 26 -305 57 -445 88 -129 28 -207 31 -229 8z"/>
<path d="M2872 6223 c-10 -21 1 -200 23 -353 35 -250 93 -491 171 -706 24 -67
44 -123 44 -126 0 -3 17 -41 37 -84 20 -44 37 -83 38 -89 0 -5 2 -12 5 -15 3
-3 20 -36 39 -75 27 -57 124 -230 184 -330 51 -85 195 -281 266 -364 51 -59
56 -62 69 -45 10 15 12 42 7 124 -4 64 -2 124 5 155 6 28 12 57 14 67 1 9 7
23 14 31 7 7 9 17 6 20 -7 7 35 68 67 100 26 25 64 37 115 37 51 0 76 -11 117
-49 32 -29 91 -146 82 -161 -4 -6 1 -10 9 -10 9 0 16 -8 16 -19 0 -10 7 -25
16 -32 14 -12 20 -9 44 19 14 17 33 32 40 32 7 0 10 3 7 7 -7 6 5 27 70 131
18 28 32 53 31 55 0 1 9 13 20 27 59 69 125 158 133 178 20 52 21 51 -158 82
-153 27 -265 41 -358 47 -127 7 -195 31 -253 90 -24 23 -41 43 -38 43 3 0 -7
12 -21 28 -37 39 -63 100 -63 152 0 26 -4 50 -10 56 -18 18 -51 195 -42 228
16 56 -29 216 -60 216 -6 0 -9 3 -5 6 3 4 -18 25 -48 47 -30 22 -55 44 -55 49
0 4 -5 8 -11 8 -6 0 -29 15 -49 33 -21 17 -73 57 -116 87 -167 118 -249 183
-311 250 -36 39 -69 70 -74 70 -5 0 -12 -8 -17 -17z"/>
<path d="M5626 6091 c-3 -5 -17 -120 -31 -257 -14 -137 -30 -284 -35 -328 -5
-43 -7 -82 -4 -87 9 -16 35 -10 279 57 139 39 261 67 290 67 62 1 80 -9 340
-186 105 -71 196 -130 204 -131 9 -1 19 19 27 59 58 266 124 584 124 598 0 22
-11 22 -100 -7 -454 -147 -520 -163 -573 -134 -25 13 -289 199 -418 294 -91
67 -95 69 -103 55z"/>
<path d="M2385 5215 c-154 -44 -600 -172 -760 -218 -246 -70 -312 -90 -339
-104 -27 -14 -28 -17 -22 -66 7 -51 96 -329 122 -379 8 -15 14 -36 14 -48 0
-11 4 -20 9 -20 7 0 21 -36 21 -55 0 -3 14 -31 30 -62 17 -32 30 -65 30 -75 0
-10 5 -18 10 -18 6 0 10 -7 10 -15 0 -9 14 -42 30 -75 17 -33 30 -67 30 -75 0
-10 5 -13 12 -9 7 5 8 3 3 -6 -4 -7 -4 -15 1 -19 5 -3 38 -63 74 -133 36 -71
68 -128 72 -128 4 0 4 -7 1 -17 -4 -9 -2 -14 3 -10 5 3 27 -27 48 -66 22 -40
42 -74 46 -77 3 -3 33 -48 65 -100 33 -52 63 -96 67 -98 4 -2 8 -10 8 -17 0
-7 3 -15 8 -17 10 -4 85 -108 78 -108 -3 0 5 -10 17 -23 12 -13 46 -55 74 -93
29 -38 62 -79 73 -91 11 -13 18 -23 14 -23 -4 0 8 -15 27 -34 19 -19 41 -43
49 -54 24 -32 132 -153 173 -194 20 -21 37 -42 37 -48 0 -5 3 -10 8 -10 4 0
66 -58 139 -128 73 -70 140 -133 150 -141 10 -8 27 -23 39 -33 16 -15 26 -17
46 -9 27 10 55 41 333 371 99 117 221 261 270 319 225 266 275 329 275 353 0
8 -35 49 -79 91 -43 42 -76 79 -73 82 3 3 -1 5 -9 6 -26 1 -366 401 -395 464
-7 17 -13 26 -14 20 0 -15 -146 207 -213 325 -146 256 -257 505 -342 770 -21
63 -45 121 -53 128 -24 19 -54 14 -217 -33z m-77 -709 c12 -2 22 1 22 6 0 5 9
8 21 6 14 -2 32 -24 55 -69 28 -54 37 -88 49 -180 27 -206 36 -230 87 -249 18
-6 99 -15 180 -19 99 -6 151 -13 163 -22 114 -93 192 -230 211 -370 8 -59 -13
-102 -64 -129 -60 -32 -72 -45 -72 -79 0 -31 -17 -54 -73 -98 -110 -87 -234
-65 -282 50 -33 79 -83 90 -140 30 -34 -36 -39 -38 -96 -38 -38 0 -63 5 -68
13 -5 9 -28 12 -70 10 -58 -2 -63 0 -86 27 -30 37 -29 90 4 270 19 100 21 140
16 240 -8 166 -15 192 -67 240 -73 67 -89 96 -77 138 13 49 51 92 98 110 40
16 81 59 81 84 0 27 24 43 55 37 17 -3 40 -7 53 -8z"/>
<path d="M4748 4796 c-46 -40 -105 -96 -131 -126 -108 -120 -277 -354 -381
-528 -36 -59 -56 -71 -56 -33 0 37 -42 176 -72 238 -64 131 -133 181 -202 148
-112 -53 -140 -243 -75 -505 55 -219 137 -425 206 -515 73 -96 161 -100 206
-9 9 17 40 93 70 170 63 162 102 242 194 397 88 150 173 277 241 362 53 66
263 281 345 353 24 21 37 41 37 57 0 21 -5 25 -32 25 -28 0 -93 9 -240 35 -22
3 -41 -9 -110 -69z"/>
<path d="M10143 4828 c-5 -7 -22 -44 -38 -83 -65 -159 -203 -411 -327 -599
-244 -367 -602 -748 -941 -1000 -34 -25 -38 -32 -33 -59 5 -24 375 -590 544
-832 15 -22 47 -70 70 -108 71 -113 114 -159 140 -150 64 23 460 354 647 540
157 157 364 388 451 504 10 15 53 71 94 125 42 55 107 146 144 204 38 58 82
124 98 148 15 24 28 44 28 46 0 2 25 45 56 97 94 157 295 567 311 635 6 25
-36 60 -107 89 -25 10 -76 33 -115 50 -38 18 -87 37 -107 44 -21 7 -40 16 -43
21 -3 5 -29 16 -58 26 -28 9 -65 24 -82 32 -16 9 -38 17 -48 19 -10 2 -28 9
-40 17 -12 8 -49 25 -81 37 -33 12 -73 30 -90 39 -17 10 -49 23 -71 30 -22 7
-44 16 -49 21 -6 5 -18 9 -28 9 -10 0 -18 5 -18 11 0 5 -5 7 -11 3 -6 -3 -14
-2 -18 3 -3 5 -31 20 -61 33 -142 61 -198 73 -217 48z m15 -790 c7 -7 12 -20
12 -29 0 -42 54 -199 85 -246 19 -29 35 -55 35 -58 0 -3 30 -46 66 -95 74
-102 78 -125 25 -152 -51 -25 -55 -32 -41 -72 15 -47 50 -88 117 -137 39 -29
53 -46 53 -64 0 -50 -78 -74 -176 -54 -79 16 -88 9 -90 -65 -1 -85 -22 -145
-58 -167 -49 -30 -81 -32 -131 -10 -56 25 -70 54 -78 170 -4 46 -9 86 -11 88
-3 3 -28 0 -57 -6 -60 -13 -115 -6 -128 17 -11 19 4 51 55 122 42 58 85 155
78 173 -4 10 -17 13 -47 10 -69 -8 -88 40 -28 71 43 23 145 128 172 177 33 59
54 124 75 234 10 50 22 93 28 97 16 11 30 10 44 -4z"/>
<path d="M6576 4513 c-73 -82 -307 -373 -368 -458 -46 -65 -177 -283 -217
-362 -38 -76 -56 -80 -66 -16 -9 65 -48 163 -90 233 -95 156 -193 169 -260 35
-28 -56 -30 -67 -29 -165 2 -127 27 -230 108 -445 123 -326 249 -460 344 -365
24 23 43 69 87 202 129 389 394 844 729 1252 42 52 56 76 56 101 l0 32 -107
17 c-60 9 -110 16 -113 16 -3 0 -36 -35 -74 -77z"/>
<path d="M1215 4201 c3 -18 5 -37 5 -42 0 -5 5 -9 10 -9 14 0 12 19 -6 55
l-14 30 5 -34z"/>
<path d="M1246 4113 c12 -51 35 -86 47 -74 7 7 6 15 -5 28 -8 10 -18 30 -22
46 -3 15 -11 27 -16 27 -6 0 -8 -11 -4 -27z"/>
<path d="M1296 3995 c4 -8 7 -15 9 -15 2 0 5 7 9 15 3 9 0 15 -9 15 -9 0 -12
-6 -9 -15z"/>
<path d="M1332 3935 c0 -16 2 -22 5 -12 2 9 2 23 0 30 -3 6 -5 -1 -5 -18z"/>
<path d="M1351 3884 c0 -11 3 -14 6 -6 3 7 2 16 -1 19 -3 4 -6 -2 -5 -13z"/>
<path d="M3880 3253 c-8 -3 -26 -18 -40 -33 -50 -53 -90 -100 -90 -105 0 -6
-37 -50 -75 -89 -17 -17 -43 -47 -57 -66 -15 -19 -39 -48 -53 -65 -15 -16 -43
-50 -63 -74 -21 -24 -45 -53 -55 -65 -11 -11 -33 -38 -50 -59 -18 -22 -39 -47
-47 -57 -8 -10 -28 -35 -45 -56 -16 -21 -50 -61 -75 -89 -25 -28 -61 -71 -80
-95 -19 -25 -52 -63 -72 -86 -50 -54 -73 -108 -55 -126 23 -22 93 -78 170
-134 39 -29 77 -57 82 -62 6 -4 42 -29 80 -55 39 -25 90 -61 115 -79 24 -18
49 -35 55 -37 5 -2 66 -38 135 -79 748 -447 1614 -709 2485 -750 145 -6 161
-6 177 10 17 17 18 58 21 551 3 796 4 750 -16 780 -16 24 -24 27 -75 27 -70 1
-292 24 -427 45 -499 77 -1003 262 -1440 528 -109 67 -262 168 -300 199 -80
65 -167 128 -177 127 -7 0 -20 -3 -28 -6z m871 -794 c25 -18 33 -19 62 -8 28
10 37 9 60 -6 14 -9 29 -26 32 -37 6 -17 13 -18 61 -12 73 9 97 -8 119 -82 13
-45 15 -79 9 -170 l-7 -114 36 0 c109 0 99 -152 -29 -417 -59 -123 -117 -193
-174 -211 -133 -41 -256 -9 -366 95 -75 71 -108 151 -119 293 -3 41 -15 131
-26 200 -31 183 -20 239 51 279 27 15 40 31 49 60 13 45 52 81 87 81 15 0 33
13 50 35 31 41 62 45 105 14z"/>
<path d="M4694 2423 c-14 -5 -8 -87 8 -117 14 -25 23 -208 14 -279 -6 -47 -11
-57 -27 -57 -10 0 -19 6 -19 13 -1 6 -2 69 -4 138 -5 140 -16 197 -46 224 -20
18 -21 18 -43 -3 -27 -28 -37 -131 -24 -267 11 -113 10 -126 -3 -139 -22 -22
-37 20 -49 139 -6 66 -16 124 -21 129 -33 33 -39 -72 -15 -244 8 -58 19 -141
24 -185 5 -44 19 -107 31 -139 43 -113 166 -199 284 -200 87 0 130 17 170 70
49 64 159 345 160 409 1 47 -1 50 -23 50 -23 0 -26 -6 -37 -73 -14 -83 -11
-77 -43 -87 -23 -7 -24 -6 -18 36 14 94 29 328 25 402 -3 64 -7 81 -23 93 -26
19 -32 18 -50 -9 -10 -16 -16 -61 -20 -150 -3 -96 -8 -132 -20 -143 -8 -8 -19
-13 -23 -10 -5 3 -11 80 -15 172 -5 151 -7 168 -26 187 -37 37 -45 12 -41
-125 2 -68 4 -146 4 -175 -1 -59 -18 -90 -40 -72 -10 8 -14 41 -14 123 0 61
-7 146 -15 189 -8 43 -15 80 -15 83 0 8 -36 21 -46 17z"/>
<path d="M8630 3002 c-8 -4 -42 -25 -75 -46 -53 -34 -302 -176 -310 -176 -2 0
-56 -25 -121 -56 -174 -82 -195 -90 -444 -174 -332 -112 -780 -190 -1092 -190
-78 0 -88 -2 -102 -22 -14 -20 -16 -100 -16 -668 0 -528 2 -650 14 -665 12
-17 25 -18 182 -12 900 34 1809 314 2588 796 76 48 144 94 150 103 7 13 7 26
0 46 -10 27 -131 217 -160 250 -8 9 -33 47 -56 84 -127 200 -480 715 -497 726
-23 13 -38 14 -61 4z m-910 -602 c11 -11 20 -24 20 -30 0 -5 11 -34 25 -64 14
-30 25 -60 25 -65 0 -6 4 -11 9 -11 10 0 24 -38 21 -59 -1 -7 3 -10 9 -6 6 3
11 0 11 -9 0 -8 15 -24 34 -35 29 -18 49 -21 161 -21 141 0 165 -9 165 -59 0
-28 -16 -44 -118 -118 -71 -52 -89 -82 -71 -124 6 -16 10 -31 9 -35 -1 -4 2
-10 7 -13 6 -3 31 -50 58 -103 53 -108 55 -141 8 -159 -35 -13 -61 -6 -94 25
-14 13 -40 31 -58 40 -17 9 -59 35 -93 56 -67 44 -104 49 -146 23 -54 -35
-228 -168 -253 -194 -35 -37 -72 -46 -105 -24 -35 22 -31 50 34 235 28 80 52
156 53 170 5 42 -17 66 -103 116 -100 57 -118 75 -118 111 0 46 27 55 164 54
122 -2 122 -2 151 27 28 28 50 89 76 203 18 81 74 114 119 69z"/>
<path d="M7664 2197 c-38 -44 -11 -106 41 -93 30 8 34 43 9 81 -18 27 -33 31
-50 12z"/>
<path d="M7953 1993 c-17 -6 -16 -23 1 -23 8 0 16 7 20 15 6 15 1 17 -21 8z"/>
<path d="M7654 1956 c-47 -21 -51 -36 -20 -63 41 -35 142 -29 168 10 11 18
-10 44 -43 56 -41 14 -67 13 -105 -3z m91 -26 c9 -15 -13 -40 -35 -40 -22 0
-44 25 -35 40 3 5 19 10 35 10 16 0 32 -5 35 -10z"/>
<path d="M7547 1781 c-18 -7 -67 -111 -67 -143 0 -29 33 -21 93 23 67 47 73
73 27 107 -16 12 -30 22 -32 21 -2 0 -11 -4 -21 -8z"/>
<path d="M7866 1754 c-8 -21 9 -51 34 -59 41 -13 54 21 20 55 -24 24 -46 26
-54 4z"/>
</g>
</svg>
